PathFileType	4	(X/Y/Z)	D:\TRACE\v60_Jaco2_6-2-23\BothDRS_Motion2_1-platform.trc
DataRate	CameraRate	NumFrames	NumMarkers	Units	OrigDataRate	OrigDataStartFrame	OrigNumFrames
100.00	100.00	      56	5	mm	100.00	1	      7500
Frame#	Time	Left_Front			Right_Front			Left_Aft			Right_Aft			Post			
		X1	Y1	Z1	X2	Y2	Z2	X3	Y3	Z3	X4	Y4	Z4	X5	Y5	Z5	

1	0.000	-800.66992	8.69518	-638.96515	769.53674	10.00417	-644.10016	-708.63293	7.68648	496.20132	733.23773	7.16910	505.96555	-14.33518	1307.72656	-962.30847	
2	0.010	-800.65863	8.71729	-638.95264	769.40466	10.04764	-644.14252	-708.61578	7.66342	496.22281	733.19873	7.16365	505.97916	-14.37096	1307.73181	-962.29474	
3	0.020	-800.63550	8.75028	-638.97473	769.43420	10.07858	-644.09772	-708.63733	7.72184	496.21222	733.17609	7.18143	505.95267	-14.39579	1307.76245	-962.31281	
4	0.030	-800.63220	8.78944	-638.98450	769.54559	10.02521	-644.09601	-708.70239	7.76213	496.19675	733.22888	7.18550	505.95419	-14.39272	1307.72205	-962.32416	
5	0.040	-800.62555	8.73010	-638.93018	769.38495	10.05435	-644.17645	-708.65643	7.72311	496.17612	733.22675	7.17902	505.96805	-14.41632	1307.72766	-962.32727	
6	0.050	-800.65466	8.66391	-638.92340	769.49890	9.98814	-644.10986	-708.68512	7.70237	496.20270	733.21906	7.18424	505.94867	-14.36034	1307.72717	-962.33899	
7	0.060	-800.66174	8.71153	-638.88940	769.55884	10.05097	-644.04370	-708.60376	7.61707	496.21759	733.22278	7.18140	505.99197	-14.31630	1307.73804	-962.33301	
8	0.070	-800.63220	8.72212	-638.94324	769.36591	10.04894	-644.17126	-708.62299	7.70561	496.19962	733.22266	7.17462	505.96622	-14.40266	1307.69788	-962.34222	
9	0.080	-800.59479	8.73772	-638.94885	769.40173	10.03249	-644.12872	-708.62939	7.69785	496.16040	733.24048	7.16291	505.97134	-14.42383	1307.72083	-962.33801	
10	0.090	-800.62640	8.74425	-638.91772	769.42706	10.02261	-644.14563	-708.61847	7.65727	496.22247	733.19305	7.13304	505.97192	-14.30792	1307.72156	-962.31677	
11	0.100	-800.62732	8.67274	-638.91571	769.49854	10.00744	-644.10150	-708.61554	7.68238	496.24225	733.19830	7.17895	505.98285	-14.39774	1307.70715	-962.31213	
12	0.110	-800.66956	8.70210	-638.89935	769.37433	10.02670	-644.15753	-708.63312	7.67831	496.23599	733.13324	7.14956	505.98383	-14.38989	1307.70728	-962.29590	
13	0.120	-800.64447	8.71904	-638.93762	769.56580	10.02396	-644.06580	-708.58136	7.65696	496.26273	733.22778	7.19282	505.96521	-14.41917	1307.72913	-962.29578	
14	0.130	-800.59930	8.72293	-638.93945	769.56366	10.03788	-644.09943	-708.61182	7.69440	496.22446	733.20813	7.16696	505.96078	-14.36480	1307.74170	-962.31360	
15	0.140	-800.62421	8.74501	-638.99689	769.56458	10.03296	-644.07111	-708.64911	7.70439	496.19370	733.23907	7.15637	505.96271	-14.40176	1307.76160	-962.31891	
16	0.150	-800.65491	8.76998	-638.96576	769.55878	10.02554	-644.07605	-708.60333	7.69591	496.18478	733.24707	7.19928	505.96075	-14.39730	1307.72742	-962.32324	
17	0.160	-800.66943	8.73812	-638.84125	769.36194	10.07193	-644.09668	-708.62061	7.66528	496.20102	733.15582	7.18113	505.96448	-14.34799	1307.73218	-962.33173	
18	0.170	-800.66760	8.70377	-638.88373	769.57288	10.03504	-644.07263	-708.62238	7.62752	496.17737	733.21844	7.17383	505.98083	-14.33932	1307.74780	-962.35797	
19	0.180	-800.64722	8.76763	-638.93494	769.54694	10.04358	-644.07251	-708.64319	7.72043	496.19138	733.23126	7.20611	505.93439	-14.35105	1307.75513	-962.31439	
20	0.190	-800.59991	8.71771	-638.98596	769.53455	10.01093	-644.09119	-708.62616	7.71670	496.17776	733.25616	7.19331	505.96024	-14.38298	1307.76074	-962.34790	
21	0.200	-800.60474	8.74160	-638.99237	769.59186	10.06062	-644.07709	-708.67120	7.71396	496.16049	733.18250	7.17007	505.98471	-14.41113	1307.71277	-962.33276	
22	0.210	-800.66541	8.75453	-638.92877	769.45349	10.04974	-644.09467	-708.58160	7.68832	496.20914	733.18982	7.15641	505.97101	-14.34332	1307.71619	-962.33966	
23	0.220	-800.67120	8.73155	-638.91925	769.51300	10.02878	-644.05774	-708.62274	7.66666	496.21591	733.23602	7.17428	505.96799	-14.40039	1307.70410	-962.30518	
24	0.230	-800.62915	8.68017	-638.91553	769.51508	10.00780	-644.08264	-708.66254	7.67602	496.20789	733.21844	7.15040	505.96115	-14.36099	1307.72571	-962.32031	
25	0.240	-800.58160	8.69110	-639.00739	769.43164	10.03852	-644.11078	-708.66956	7.73213	496.17871	733.22357	7.16368	505.97775	-14.35092	1307.71472	-962.31439	
26	0.250	-800.60986	8.74823	-639.03326	769.60162	10.02117	-644.06104	-708.64075	7.71412	496.20697	733.19592	7.15133	505.96832	-14.37197	1307.74878	-962.30072	
27	0.260	-800.63257	8.73170	-638.89844	769.56323	10.01756	-644.08722	-708.65680	7.69330	496.17676	733.19348	7.13935	505.98276	-14.36091	1307.70154	-962.32373	
28	0.270	-800.67822	8.68970	-638.90271	769.51501	10.02932	-644.09418	-708.63318	7.67243	496.21878	733.16473	7.14790	505.99860	-14.35901	1307.71338	-962.31958	
29	0.280	-800.66254	8.72833	-638.89258	769.56500	10.02881	-644.11310	-708.59265	7.62570	496.22330	733.20630	7.13578	505.98386	-14.32444	1307.72864	-962.31482	
30	0.290	-800.66199	8.69737	-638.89587	769.39203	10.03312	-644.13330	-708.65527	7.68585	496.22150	733.19507	7.16979	505.99658	-14.35639	1307.68542	-962.29651	
31	0.300	-800.59808	8.65783	-638.92871	769.42822	10.03082	-644.13239	-708.61755	7.66894	496.19962	733.22913	7.18737	505.98001	-14.35491	1307.70996	-962.32825	
32	0.310	-800.65063	8.75516	-638.86932	769.51544	9.99176	-644.10962	-708.64795	7.71392	496.24078	733.26111	7.17303	505.96011	-14.39216	1307.71838	-962.31201	
33	0.320	-800.63293	8.69376	-638.97418	769.54388	10.01516	-644.08069	-708.65247	7.72165	496.21548	733.21100	7.17431	505.97879	-14.36127	1307.68359	-962.33386	
34	0.330	-800.62048	8.68642	-638.95355	769.39264	10.02323	-644.16254	-708.66504	7.70131	496.20526	733.24451	7.17562	505.95630	-14.39818	1307.68823	-962.31555	
35	0.340	-800.64526	8.70959	-638.91528	769.51538	10.02935	-644.09753	-708.62994	7.69205	496.18820	733.20587	7.17749	505.95850	-14.39300	1307.73596	-962.31097	
36	0.350	-800.62610	8.79849	-638.92847	769.57751	10.02004	-644.04541	-708.64038	7.70942	496.17517	733.24103	7.17678	505.95117	-14.38995	1307.73242	-962.32208	
37	0.360	-800.58588	8.73688	-638.98755	769.40558	10.04495	-644.16101	-708.65979	7.69493	496.17966	733.24207	7.19336	505.96036	-14.37870	1307.68994	-962.31268	
38	0.370	-800.63287	8.73439	-638.93329	769.34637	10.05071	-644.14990	-708.61493	7.68514	496.20529	733.22498	7.15822	505.97052	-14.43374	1307.70789	-962.29730	
39	0.380	-800.64148	8.76335	-638.92639	769.53253	10.00351	-644.08789	-708.61865	7.66971	496.18588	733.23285	7.14988	505.98676	-14.38297	1307.70667	-962.32373	
40	0.390	-800.62799	8.74631	-638.94373	769.36450	10.04801	-644.14520	-708.65125	7.69712	496.16736	733.17719	7.12252	505.97449	-14.34932	1307.68628	-962.29163	
41	0.400	-800.63855	8.74030	-638.96613	769.55121	10.02367	-644.06726	-708.65015	7.67767	496.17484	733.24390	7.17135	505.93127	-14.40704	1307.73389	-962.32202	
42	0.410	-800.63489	8.77996	-638.94623	769.59039	10.02274	-644.03284	-708.65558	7.73878	496.21613	733.25262	7.19512	505.97079	-14.39338	1307.72388	-962.34888	
43	0.420	-800.63812	8.72054	-638.87909	769.41034	10.02433	-644.12213	-708.65063	7.66388	496.21732	733.22351	7.16813	505.97083	-14.34352	1307.69739	-962.30597	
44	0.430	-800.64600	8.73644	-638.97797	769.51617	9.98642	-644.07086	-708.60840	7.63617	496.23907	733.23071	7.17497	505.95670	-14.32551	1307.68481	-962.30371	
45	0.440	-800.66498	8.69517	-638.89685	769.38922	10.06569	-644.13458	-708.61432	7.64536	496.23495	733.17035	7.15221	505.98013	-14.40337	1307.70129	-962.30377	
46	0.450	-800.65906	8.70446	-638.92072	769.52637	10.04560	-644.08081	-708.64612	7.69553	496.24661	733.17664	7.18591	505.96945	-14.33326	1307.71118	-962.32556	
47	0.460	-800.63910	8.78978	-638.91449	769.41522	10.03430	-644.11877	-708.66180	7.71566	496.14850	733.20709	7.19952	505.99658	-14.40921	1307.70422	-962.31720	
48	0.470	-800.61090	8.72067	-638.95996	769.52515	10.00430	-644.08276	-708.62341	7.67752	496.20184	733.23395	7.18888	505.96823	-14.37690	1307.75769	-962.32562	
49	0.480	-800.64026	8.71766	-638.95636	769.59131	9.98817	-644.03534	-708.63525	7.66776	496.21237	733.17358	7.18699	506.01221	-14.33696	1307.71411	-962.31311	
50	0.490	-800.66913	8.73277	-638.89368	769.55609	10.01995	-644.05682	-708.62109	7.65460	496.24146	733.19434	7.16452	505.96497	-14.34625	1307.71558	-962.27338	
51	0.500	-800.63092	8.69263	-638.93945	769.53522	10.02633	-644.09119	-708.62268	7.71219	496.22855	733.19073	7.14916	505.96585	-14.33886	1307.73755	-962.29364	
52	0.510	-800.61639	8.74750	-638.91974	769.52515	10.00659	-644.08966	-708.62189	7.68470	496.21033	733.24084	7.16593	505.97781	-14.36685	1307.73975	-962.32275	
53	0.520	-800.61151	8.75077	-638.95789	769.55743	10.03990	-644.07050	-708.65314	7.72252	496.19928	733.28198	7.18822	505.97815	-14.43230	1307.75012	-962.31586	
54	0.530	-800.61847	8.69023	-638.96771	769.49054	10.02176	-644.08722	-708.67419	7.70336	496.22073	733.19232	7.17441	505.96680	-14.38655	1307.72974	-962.33063	
55	0.540	-800.62897	8.72882	-638.98584	769.55328	10.03874	-644.05817	-708.66077	7.70650	496.20447	733.21576	7.17075	505.96515	-14.35589	1307.74280	-962.28088	
56	0.550	-800.62750	8.74478	-638.92163	769.56439	10.00358	-644.10803	-708.65485	7.68427	496.17868	733.25653	7.17825	505.97656	-14.35409	1307.73047	-962.34253	
